<svg width="15" height="18" viewBox="0 0 15 18" fill="none" xmlns="http://www.w3.org/2000/svg">
<path d="M7.75505 5.41572C7.09805 5.41572 6.08103 4.66872 5.01003 4.69572C3.59703 4.71372 2.30103 5.51471 1.57203 6.78371C0.105033 9.33074 1.19403 13.0927 2.62503 15.1627C3.32703 16.1707 4.15503 17.3047 5.25303 17.2687C6.30603 17.2237 6.70205 16.5847 7.98005 16.5847C9.24905 16.5847 9.60905 17.2687 10.725 17.2417C11.859 17.2237 12.579 16.2157 13.272 15.1987C14.073 14.0287 14.406 12.8947 14.424 12.8317C14.397 12.8227 12.219 11.9857 12.192 9.46574C12.174 7.35971 13.911 6.35172 13.992 6.30672C13.002 4.85772 11.481 4.69572 10.95 4.65972C9.56405 4.55172 8.40305 5.41572 7.75505 5.41572ZM10.095 3.29172C10.68 2.58972 11.067 1.60872 10.959 0.636719C10.122 0.672719 9.11405 1.19472 8.51105 1.89672C7.97105 2.51772 7.50305 3.51672 7.62905 4.47072C8.55605 4.54272 9.51005 3.99372 10.095 3.29172Z" fill="#474747"/>
</svg>
