<svg width="19" height="18" viewBox="0 0 19 18" fill="none" xmlns="http://www.w3.org/2000/svg">
<path d="M2 1.5H3.305C4.115 1.5 4.7525 2.1975 4.685 3L4.0625 10.47C3.9575 11.6925 4.92499 12.7425 6.15499 12.7425H14.1425C15.2225 12.7425 16.1675 11.8575 16.25 10.785L16.655 5.16C16.745 3.915 15.8 2.9025 14.5475 2.9025H4.86501" stroke="#727272" stroke-width="1.5" stroke-miterlimit="10" stroke-linecap="round" stroke-linejoin="round"/>
<path d="M12.6875 16.5C13.2053 16.5 13.625 16.0803 13.625 15.5625C13.625 15.0447 13.2053 14.625 12.6875 14.625C12.1697 14.625 11.75 15.0447 11.75 15.5625C11.75 16.0803 12.1697 16.5 12.6875 16.5Z" stroke="#727272" stroke-width="1.5" stroke-miterlimit="10" stroke-linecap="round" stroke-linejoin="round"/>
<path d="M6.6875 16.5C7.20527 16.5 7.625 16.0803 7.625 15.5625C7.625 15.0447 7.20527 14.625 6.6875 14.625C6.16973 14.625 5.75 15.0447 5.75 15.5625C5.75 16.0803 6.16973 16.5 6.6875 16.5Z" stroke="#727272" stroke-width="1.5" stroke-miterlimit="10" stroke-linecap="round" stroke-linejoin="round"/>
<path d="M7.25 6H16.25" stroke="#727272" stroke-width="1.5" stroke-miterlimit="10" stroke-linecap="round" stroke-linejoin="round"/>
</svg>
