<svg width="19" height="18" viewBox="0 0 19 18" fill="none" xmlns="http://www.w3.org/2000/svg">
<path d="M13.25 7.5H14.75C16.25 7.5 17 6.75 17 5.25V3.75C17 2.25 16.25 1.5 14.75 1.5H13.25C11.75 1.5 11 2.25 11 3.75V5.25C11 6.75 11.75 7.5 13.25 7.5Z" stroke="#727272" stroke-width="1.5" stroke-miterlimit="10" stroke-linecap="round" stroke-linejoin="round"/>
<path d="M4.25 16.5H5.75C7.25 16.5 8 15.75 8 14.25V12.75C8 11.25 7.25 10.5 5.75 10.5H4.25C2.75 10.5 2 11.25 2 12.75V14.25C2 15.75 2.75 16.5 4.25 16.5Z" stroke="#727272" stroke-width="1.5" stroke-miterlimit="10" stroke-linecap="round" stroke-linejoin="round"/>
<path d="M5 7.5C6.65685 7.5 8 6.15685 8 4.5C8 2.84315 6.65685 1.5 5 1.5C3.34315 1.5 2 2.84315 2 4.5C2 6.15685 3.34315 7.5 5 7.5Z" stroke="#727272" stroke-width="1.5" stroke-miterlimit="10" stroke-linecap="round" stroke-linejoin="round"/>
<path d="M14 16.5C15.6569 16.5 17 15.1569 17 13.5C17 11.8431 15.6569 10.5 14 10.5C12.3431 10.5 11 11.8431 11 13.5C11 15.1569 12.3431 16.5 14 16.5Z" stroke="#727272" stroke-width="1.5" stroke-miterlimit="10" stroke-linecap="round" stroke-linejoin="round"/>
</svg>
