<svg width="16" height="16" viewBox="0 0 16 16" fill="none" xmlns="http://www.w3.org/2000/svg">
<path d="M1.29773 4.63186C2.53182 2.18069 5.06813 0.5 8 0.5C10.0216 0.5 11.7193 1.24321 13.0182 2.45341L10.867 4.60456C10.0898 3.86139 9.10108 3.48295 8 3.48295C6.04657 3.48295 4.39313 4.80228 3.80341 6.575C3.65338 7.025 3.56814 7.50567 3.56814 8C3.56814 8.49433 3.65338 8.975 3.80341 9.425C4.39313 11.1977 6.04657 12.517 8 12.517C9.00905 12.517 9.86818 12.2511 10.5398 11.8011C11.3341 11.2693 11.8625 10.475 12.0364 9.5375H8V6.63635H15.0636C15.1523 7.12722 15.2 7.63865 15.2 8.17048C15.2 10.4545 14.3818 12.3772 12.9636 13.683C11.7227 14.8284 10.025 15.5 8 15.5C5.06813 15.5 2.53182 13.8193 1.29773 11.3682C0.789785 10.3557 0.5 9.2102 0.5 8C0.5 6.7898 0.789785 5.64433 1.29773 4.63186Z" fill="#474747"/>
</svg>
