<svg width="19" height="18" viewBox="0 0 19 18" fill="none" xmlns="http://www.w3.org/2000/svg">
<path d="M9.61992 8.1525C9.54492 8.145 9.45492 8.145 9.37242 8.1525C7.58742 8.0925 6.16992 6.63 6.16992 4.83C6.16992 2.9925 7.65492 1.5 9.49992 1.5C11.3374 1.5 12.8299 2.9925 12.8299 4.83C12.8224 6.63 11.4049 8.0925 9.61992 8.1525Z" stroke="#727272" stroke-width="1.5" stroke-linecap="round" stroke-linejoin="round"/>
<path d="M5.86906 10.92C4.05406 12.135 4.05406 14.115 5.86906 15.3225C7.93156 16.7025 11.3141 16.7025 13.3766 15.3225C15.1916 14.1075 15.1916 12.1275 13.3766 10.92C11.3216 9.5475 7.93906 9.5475 5.86906 10.92Z" stroke="#727272" stroke-width="1.5" stroke-linecap="round" stroke-linejoin="round"/>
</svg>
